<svg width="340" height="135" id="histogram_Number_of_UMIs_svg" data-testclass="histogram-plot" data-testid="histogram-Number of UMIs-plot" style="display: block;"><g class="histogram-container" transform="translate(10,3)"><g><rect x="11" y="62.954181162584334" width="7.899999999999999" height="47.045818837415666" style="fill: rgb(187, 187, 187);"></rect><rect x="17.9" y="3" width="7.900000000000002" height="107" style="fill: rgb(187, 187, 187);"></rect><rect x="24.8" y="14.475104581883741" width="7.900000000000002" height="95.52489541811626" style="fill: rgb(187, 187, 187);"></rect><rect x="31.700000000000003" y="37.11937124103835" width="7.899999999999999" height="72.88062875896165" style="fill: rgb(187, 187, 187);"></rect><rect x="38.6" y="57.52558558812344" width="7.899999999999999" height="52.47441441187656" style="fill: rgb(187, 187, 187);"></rect><rect x="45.5" y="73.695325154584" width="7.900000000000006" height="36.304674845416" style="fill: rgb(187, 187, 187);"></rect><rect x="52.400000000000006" y="84.53744524416524" width="7.899999999999999" height="25.46255475583476" style="fill: rgb(187, 187, 187);"></rect><rect x="59.300000000000004" y="92.04584700762004" width="7.899999999999999" height="17.95415299237996" style="fill: rgb(187, 187, 187);"></rect><rect x="66.2" y="97.4819781117512" width="7.8999999999999915" height="12.518021888248796" style="fill: rgb(187, 187, 187);"></rect><rect x="73.1" y="101.03724101018354" width="7.900000000000006" height="8.962758989816464" style="fill: rgb(187, 187, 187);"></rect><rect x="80" y="103.76510275082046" width="7.900000000000006" height="6.234897249179539" style="fill: rgb(187, 187, 187);"></rect><rect x="86.9" y="105.62336436750849" width="7.900000000000006" height="4.376635632491514" style="fill: rgb(187, 187, 187);"></rect><rect x="93.80000000000001" y="106.93756074200319" width="7.8999999999999915" height="3.0624392579968145" style="fill: rgb(187, 187, 187);"></rect><rect x="100.7" y="107.84634562023747" width="7.900000000000006" height="2.1536543797625285" style="fill: rgb(187, 187, 187);"></rect><rect x="107.60000000000001" y="108.51097933715509" width="7.900000000000006" height="1.4890206628449079" style="fill: rgb(187, 187, 187);"></rect><rect x="114.50000000000001" y="108.95406848176684" width="7.8999999999999915" height="1.0459315182331608" style="fill: rgb(187, 187, 187);"></rect><rect x="121.4" y="109.14848514725975" width="7.900000000000006" height="0.8515148527402516" style="fill: rgb(187, 187, 187);"></rect><rect x="128.3" y="109.41072157978506" width="7.899999999999977" height="0.5892784202149386" style="fill: rgb(187, 187, 187);"></rect><rect x="135.2" y="109.56143217319041" width="7.900000000000034" height="0.4385678268095887" style="fill: rgb(187, 187, 187);"></rect><rect x="142.10000000000002" y="109.70310013099144" width="7.899999999999977" height="0.2968998690085556" style="fill: rgb(187, 187, 187);"></rect><rect x="149" y="109.79201938110062" width="7.900000000000006" height="0.20798061889938424" style="fill: rgb(187, 187, 187);"></rect><rect x="155.9" y="109.8507965125287" width="7.900000000000006" height="0.14920348747129708" style="fill: rgb(187, 187, 187);"></rect><rect x="162.8" y="109.88545994901193" width="7.900000000000006" height="0.11454005098806874" style="fill: rgb(187, 187, 187);"></rect><rect x="169.70000000000002" y="109.89450258461625" width="7.900000000000006" height="0.10549741538375201" style="fill: rgb(187, 187, 187);"></rect><rect x="176.60000000000002" y="109.93368733890165" width="7.900000000000006" height="0.0663126610983511" style="fill: rgb(187, 187, 187);"></rect><rect x="183.50000000000003" y="109.96684366945082" width="7.899999999999977" height="0.03315633054917555" style="fill: rgb(187, 187, 187);"></rect><rect x="190.4" y="109.95930813978056" width="7.900000000000006" height="0.04069186021943949" style="fill: rgb(187, 187, 187);"></rect><rect x="197.3" y="109.97890051692325" width="7.900000000000006" height="0.021099483076753245" style="fill: rgb(187, 187, 187);"></rect><rect x="204.20000000000002" y="109.9804076228573" width="7.900000000000006" height="0.019592377142700457" style="fill: rgb(187, 187, 187);"></rect><rect x="211.10000000000002" y="109.99095736439568" width="7.900000000000006" height="0.009042635604316729" style="fill: rgb(187, 187, 187);"></rect><rect x="218.00000000000003" y="109.99095736439568" width="7.899999999999977" height="0.009042635604316729" style="fill: rgb(187, 187, 187);"></rect><rect x="224.9" y="109.9969857881319" width="7.900000000000006" height="0.0030142118681055763" style="fill: rgb(187, 187, 187);"></rect><rect x="231.8" y="109.99246447032974" width="7.900000000000006" height="0.007535529670263941" style="fill: rgb(187, 187, 187);"></rect><rect x="238.70000000000002" y="109.9969857881319" width="7.900000000000006" height="0.0030142118681055763" style="fill: rgb(187, 187, 187);"></rect><rect x="245.60000000000002" y="109.99547868219784" width="7.899999999999977" height="0.004521317802158364" style="fill: rgb(187, 187, 187);"></rect><rect x="252.5" y="109.99547868219784" width="7.899999999999977" height="0.004521317802158364" style="fill: rgb(187, 187, 187);"></rect><rect x="259.4" y="109.9969857881319" width="7.900000000000034" height="0.0030142118681055763" style="fill: rgb(187, 187, 187);"></rect><rect x="266.3" y="109.99849289406595" width="7.900000000000034" height="0.0015071059340527881" style="fill: rgb(187, 187, 187);"></rect><rect x="273.20000000000005" y="109.99849289406595" width="7.899999999999977" height="0.0015071059340527881" style="fill: rgb(187, 187, 187);"></rect><rect x="280.1" y="109.99849289406595" width="7.899999999999977" height="0.0015071059340527881" style="fill: rgb(187, 187, 187);"></rect></g><g class="brush" data-testid="histogram-Number of UMIs-plot-brushable-area" fill="none" pointer-events="all" style="-webkit-tap-highlight-color: rgba(0, 0, 0, 0);"><rect class="overlay" pointer-events="all" cursor="crosshair" x="10" y="3" width="276" height="132"></rect><rect class="selection" cursor="move" fill="#777" fill-opacity="0.3" stroke="#fff" shape-rendering="crispEdges" style="display: none;"></rect><rect class="handle handle--e" cursor="ew-resize" style="display: none;"></rect><rect class="handle handle--w" cursor="ew-resize" style="display: none;"></rect></g><g class="axis axis--x" transform="translate(0,110)" fill="none" font-size="10" font-family="sans-serif" text-anchor="middle"><path class="domain" stroke="#000" d="M10.5,6V0.5H286.5V6" style="stroke: rgb(230, 230, 230);"></path><g class="tick" opacity="1" transform="translate(91.17861938045733,0)"><line stroke="#000" y2="6" style="stroke: rgb(230, 230, 230);"></line><text fill="#000" y="9" dy="0.71em" style="fill: rgb(80, 80, 80);">1e+5</text></g><g class="tick" opacity="1" transform="translate(174.0806718069944,0)"><line stroke="#000" y2="6" style="stroke: rgb(230, 230, 230);"></line><text fill="#000" y="9" dy="0.71em" style="fill: rgb(80, 80, 80);">2e+5</text></g><g class="tick" opacity="1" transform="translate(256.9827242335315,0)"><line stroke="#000" y2="6" style="stroke: rgb(230, 230, 230);"></line><text fill="#000" y="9" dy="0.71em" style="fill: rgb(80, 80, 80);">3e+5</text></g></g><g class="axis axis--y" transform="translate(286,0)" fill="none" font-size="10" font-family="sans-serif" text-anchor="start"><path class="domain" stroke="#000" d="M6,110.5H0.5V3.5H6" style="stroke: rgb(230, 230, 230);"></path><g class="tick" opacity="1" transform="translate(0,110.5)"><line stroke="#000" x2="6" style="stroke: rgb(230, 230, 230);"></line><text fill="#000" x="9" dy="0.32em" style="fill: rgb(80, 80, 80);">0e+0</text></g><g class="tick" opacity="1" transform="translate(0,80.35788131892897)"><line stroke="#000" x2="6" style="stroke: rgb(230, 230, 230);"></line><text fill="#000" x="9" dy="0.32em" style="fill: rgb(80, 80, 80);">2e+4</text></g><g class="tick" opacity="1" transform="translate(0,50.215762637857935)"><line stroke="#000" x2="6" style="stroke: rgb(230, 230, 230);"></line><text fill="#000" x="9" dy="0.32em" style="fill: rgb(80, 80, 80);">4e+4</text></g><g class="tick" opacity="1" transform="translate(0,20.07364395678691)"><line stroke="#000" x2="6" style="stroke: rgb(230, 230, 230);"></line><text fill="#000" x="9" dy="0.32em" style="fill: rgb(80, 80, 80);">6e+4</text></g></g></g></svg>